<?xml version="1.0" encoding="UTF-8"?>
<svg id="Layer_1" data-name="Layer 1" xmlns="http://www.w3.org/2000/svg" viewBox="0 0 916.69 650.93">
  <path fill="#d19a66" d="M423.28,649.34c-72.45-10.29-130.23-61.59-147.43-130.23-1.41-6.06-2.96-11.7-3.24-12.54-.42-1.13-3.52-.99-10.99.28-15.93,2.82-53,3.66-69.77,1.97-56.66-6.2-102.61-28.19-138.55-66.39C22.15,409.31,3.68,367.16.3,320.37c-2.11-28.19,7.19-70.75,21.85-99.93,10.01-19.87,31.01-46.51,48.77-61.59,26.5-22.69,65.26-41.72,94.86-46.93l9.58-1.55,2.11-6.77c3.38-10.43,13.53-29.6,20.3-39.04,9.58-13.11,28.33-30.59,42.28-39.46,13.95-9.16,34.11-17.48,51.3-21.42,15.22-3.52,45.24-4.79,61.45-2.54,30.73,4.09,61.45,17.62,85.55,37.21l7.47,5.92,11.13-9.02c19.73-15.79,38.2-24.81,63.43-31.29,12.54-3.24,16.07-3.52,38.34-3.52,26.22.14,38.06,1.97,57.93,9.44,34.95,13.25,65.12,40.31,82.59,74.28,5.78,11.13,6.77,12.12,10.15,12.12,2.11,0,7.75.85,12.83,1.83,45.81,9.73,84,36.08,106.13,73.29,12.12,20.3,19.03,42.14,21.14,66.81l1.27,15.79,10.43,10.71c13.25,13.39,15.36,15.93,24.24,29.74,12.12,18.6,19.45,35.38,25.23,57.51,5.36,20.16,6.62,34.25,5.78,58.21-1.41,39.32-12.69,74.56-34.81,107.82-10.15,15.36-34.81,41.3-49.75,52.15-22.83,16.77-54.55,30.44-84.57,36.5-21.28,4.23-54.83,4.23-76.11,0-24.52-4.93-48.06-14.24-67.51-26.64-5.92-3.81-10.99-6.77-11.13-6.48-.28.28-3.81,5.22-8.03,10.85-35.1,46.65-101.76,73.57-161.24,64.98h0ZM470.78,590.7c22.69-4.65,41.44-14.52,57.93-30.44,11.13-10.71,18.6-21.99,26.07-38.76,6.77-15.79,13.25-22.41,23.54-24.67,12.69-2.68,20.44.7,33.97,14.52,12.12,12.54,25.51,22.41,37.91,28.19,65.68,30.44,144.05,7.33,184.64-54.69,14.8-22.41,22.27-46.93,23.54-75.97,1.13-27.91-3.24-48.77-14.38-71.32-7.61-15.22-13.81-23.12-32.14-41.02-18.75-18.18-19.17-19.17-19.17-40.03,0-46.37-25.23-82.59-67.23-96.69-4.65-1.41-9.3-2.54-10.15-2.11-1.13.42-1.83,2.82-1.83,6.34,0,8.88-6.06,31.85-11.13,41.72-10.43,20.72-29.88,28.47-45.1,17.76-12.12-8.6-14.24-21-7.05-43.41,3.95-12.26,4.23-14.24,4.23-32.28s-.28-20.01-3.38-28.05c-8.32-21.85-24.38-40.17-44.54-50.46-17.2-8.88-28.89-11.7-48.34-11.7-18.75-.14-30.73,2.68-47.78,11.13-23.54,11.7-45.1,39.04-48.77,61.88l-.85,5.07,9.73.99c31.99,2.96,67.94,20.72,90.49,44.96,28.47,30.3,42.99,66.95,43.27,108.95.14,14.24.56,18.6,1.69,18.04.99-.28,8.32-1.55,16.49-2.82,47.36-7.05,90.91,7.33,123.61,40.17,18.89,19.03,33.4,47.5,33.4,64.98,0,21.71-21.56,35.52-40.59,26.36-7.33-3.38-11.7-9.16-15.64-20.3-11.7-31.99-35.8-51.16-69.35-54.69-19.59-2.11-43.55,2.82-58.77,11.98-3.52,2.11-17.62,15.08-31.01,28.61-16.63,16.77-28.61,27.63-37.35,33.97-28.61,20.16-32.84,24.95-38.48,43.27-3.95,12.83-8.03,18.18-17.34,22.69-5.78,2.96-8.6,3.52-13.81,3.1-13.81-1.27-24.38-11.98-26.22-25.79-.99-8.88,3.38-25.79,10.29-40.03,7.19-14.38,21.71-29.03,45.81-46.09,29.74-21.14,45.81-40.45,54.97-65.96,3.95-11.28,4.09-12.12,4.09-34.67,0-20.72-.28-24.1-3.1-32.28-9.16-27.06-25.79-46.93-49.05-58.35-14.09-6.91-23.26-8.74-49.75-9.58-26.92-.99-29.6-1.69-37.21-11.7-5.64-7.47-7.47-17.34-6.48-34.39,1.13-17.2,2.4-24.1,7.61-41.02l4.23-13.67-3.95-3.24c-16.77-13.95-38.76-25.09-57.36-29.03-11.28-2.4-33.12-2.4-44.68.14-32.84,6.91-55.25,23.96-69.2,52.85-7.19,14.94-9.73,28.61-7.75,40.87,3.1,19.31,16.91,39.32,32.14,46.37,8.88,4.09,15.93,5.36,37.49,7.19,44.54,3.38,79.49,26.07,98.24,63.14,5.07,10.15,10.29,28.19,11.56,39.18l.85,8.32,12.4-.7c11.56-.56,12.83-.42,19.87,3.1,20.86,10.29,21.28,40.31.56,50.88-2.96,1.41-11.28,3.52-18.75,4.65-25.93,3.81-42.99,11.56-58.77,26.36-23.96,22.27-36.08,52.43-34.39,85.41.85,15.64,3.24,25.93,8.88,37.91,9.3,19.87,27.2,39.89,45.67,50.88,10.99,6.48,29.6,13.53,41.58,15.5,12.4,1.97,31.43,1.55,44.12-1.13v-.42ZM261.05,448.07c7.47-1.27,13.81-2.82,13.81-3.1.28-.28,2.4-6.48,4.65-13.81,7.47-23.68,19.87-44.82,37.07-63,8.46-9.02,24.52-21.85,33.26-26.5l4.37-2.4-.99-11.56c-1.69-21-5.92-32.42-16.49-44.12-11.28-12.54-23.54-17.34-52.15-20.16-10.99-1.13-23.54-2.96-27.91-3.95-22.97-5.92-48.2-24.1-64.41-46.09-5.64-7.75-13.81-24.24-16.21-33.26-1.27-4.23-2.68-8.17-3.24-8.74-1.27-1.41-22.41,5.36-33.97,10.85-27.91,13.53-53.98,40.31-67.37,69.49-10.29,22.13-15.08,49.75-12.54,72.16,7.47,65.68,59.34,116.84,128.54,126.57,13.53,1.83,57.93.42,73.43-2.4h.14Z"/>
  <path fill="#d19a66" d="M188.88,376.33c-20.16-3.81-36.79-21.28-40.03-41.58-3.24-20.44,9.02-42.57,28.75-51.87,6.62-3.24,9.3-3.52,20.72-3.52s13.95.42,20.72,3.66c9.73,4.79,18.32,13.39,23.12,23.12,3.38,6.91,3.66,8.88,3.66,22.13s-.42,15.36-3.24,20.44c-7.47,14.09-18.6,23.12-33.83,27.06-8.6,2.11-11.7,2.26-20.16.56h.28Z"/>
</svg>